/* XPM */
static char *_56b41199a254e0581a4c2716b5640af3SRagYRiysL5Zgwz[] = {
/* columns rows colors chars-per-pixel */
"64 64 23 1 ",
"  c black",
". c #101010",
"X c #583818",
"o c #205818",
"O c #083860",
"+ c #484848",
"@ c #886040",
"# c FFFFFF",
"$ c #709040",
"% c #B8B058",
"& c #D0A848",
"* c #E0C070",
"= c #2060A8",
"- c #705090",
"; c #A078B8",
": c #5888C8",
"> c #909090",
", c #F0D098",
"< c #90A8E0",
"1 c #D0B0F0",
"2 c #C8C8D0",
"3 c #E8D8F8",
"4 c #F8F8F8",
/* pixels */
"################################################################",
"################################################################",
"#############OO###############==################################",
"#########+++O::OO##======###OO<<O###############################",
"########+222O:::OO=::::::==O=:<:.###############################",
"#######.2222.=:O:::::::::::O:<::.###############################",
"#######.22222==:::::::::::=::::+:.##############################",
"######.>>2222O::::::::::::::::+.:.XXXXXXXX######################",
"######.>>>>2O=::::::::::::::::..:.442XX@@@XXX###.....X##########",
"######.>>>>>.::::::::<<:::O=::..:=.4442X@@@@@XX.@@X&&&X#########",
"#######.>>>.::::::::<<:::O=:::::::.44444X@@@@@.@@X&&&&&X########",
"########.+>.::=::::=::::.22=::::::=.44444@@@@XX@X&&&@&&&X#######",
"#########+.>.:O::::O:::=&222=::::::O.>4444X@@.@X&&&X.X&&&X######",
"###########+OOO====O==O.@442:::::::O...4444XX@X&&&X...X&&&X#####",
"############O2.=====OO2.@44::::::::O....4442X.@&&X.....+++&X####",
"###+++.###OOO2X==::::::::::::::::::.....4444+X@@X.+++.>244+++###",
"#+..42=OOO=.:::::::::::::::::O::::=....>44442+@X.++>.24444444++#",
".+22.O==O=.::::::::::::::::::O=::=O...>4444444++.+>.>4444444444+",
".22>O==O==.:::::::::::::::::O,,===...>4444444442+.>.2444442+.+24",
"#..OO==O===.=::.O=::::::=OOO,,,,=O..>244444444444+.+244442.....4",
".2.OOO.====...O==:::::=O&,,,,,,,...>2>>+OOOO+44444+.22242+.....+",
".22OOO.OO==.O=======OO&,,,,,,,,&..+>>>OO=:::==44444.22222.....++",
"#.2OOO.OOOOO.O....OX&&,,,,,,,,,...>>>O:::::<<<=4444+.2222+...+++",
"##..OO.OOOOO..&&&&&&&&&*,,,,,,..&+>>O:::::<<<<<=4444.2222>.++++4",
"###..OO.OOOO...&&&&&&&&&&***&..&+>>>O::::<<<<<<<=444>.>222>+.+22",
"#####...OOOO.OO.X&&&&&&&&&&X..&&+>>O:::::<<<<<<<=4442+..>22222+.",
"########..OOO.OOO.X&&&&&&X.X&&&,+>>.OOO=:<<<<<<<:O222+XX......##",
"##########.....OOO.......X&&&&,,..O:::::==<<<<<::O222+XXXXXX.###",
"###############...&&&&&&&&&&&,,,.:::::<<<<=<<<:::O222+XXXXXX.###",
"#################.&&&&&&&&&&,,,.:::::<<<<<<=:::::O222..XXXXX.###",
"#################.X&&&&&&&,,,,,.OO==:<<<<<<=:::::.22+X.XXXXX.###",
"################X&,XX@&&,,,,,,O=::<<==<<<<<:=:::O222+XX.XXXX.###",
"################.&&,,@XXXXXXXO:::<<<<<=<<<::O::=.>2+XXXX.....###",
"################.&&&&,,,,,,,O::::<<<<<<=::::O::O>>+.XXXXXXX.####",
"################.@&&&&&*,,,+2:::::<<<<<=::::O:.>++>>.XXXXXX.####",
"#################.&&&&&&,,+22>:OOO::<<::=::=O.++.>>>.XXXXXX.####",
"#################.&&&&&&,,.22O+444O:::::O::O.+&*+>>22.XXXXX.####",
"#################.@&&&&&*,...+2444O==:::O.O&&&&@&.2222.XXXX.####",
"#################..&&&&&&,,,,+44>O+24=:=.&&&&@O...O2222.XX.#####",
"################.O.@&&&&&&,,,+2..O+44...,,&&OO:::::OO22.XX.#####",
"###############.OOO.X&&&&&&*,..,,,+2.O,,,,OO=::::::::O22..######",
"###############O==O.&XX&&&&&&*,,,,..,,,@@.==::::::::::O22..#####",
"##############.====O.&&XX@&&&&&&&&*@XX@&.==::::::::::::O2.O.####",
"##############O=====O.&&&&@XXXXXXX@&&&&&.==::::::::::::O.OOOO.##",
"#############O=======O.&&&&&&&&&&&&&&&&.===::::::::::::OOOOOOO.#",
"#############.======OOO.&&&&&&&&&&&&&&&.===:::::::::::::.OOOOO.#",
"#############.=====OOO.O.&&&&&&&&&&&&&.O===:::::::::::::.OOOO.##",
"#############O====OOOO.OO..&&&&&&&&&&&.O====::::::::::::.OOO.###",
"##############.OOOOOO.OOOOO..XXXXXXX@@.=O====:::::::::::O...####",
"##############.OOOO..OOOOOOO...@@@@@@@.=.=====:::::::::=O.######",
"###############....OOOOOOOOOOOO...@@@@.==.=====:::::::==O.######",
"###############.OOOOOOOOOOOOOO.###.....===.O=====::::==O=.######",
"#############++>OOOOOOOOOOOOOO>+#######.====O==========O=.######",
"############+>>>>OOOOOOOOOOOO>>+########.====O.=======O=O#######",
"############.>>>>O.>2OOOOOO....#########.======O.====O==.#######",
"#############.....2222O....##############.=======O..O===.#######",
"#################.222..##################.==============.#######",
"##################...####################.============OO>.######",
"#########################################.===OO====OO=.22++#####",
"##########################################.=O44O=OO44O+222.#####",
"###########################################.4444O244442...######",
"###########################################.244+.22444++########",
"############################################+++##..242.#########",
"###################################################...##########",
"################################################################",
};
